<?xml version="1.0" encoding="UTF-8"?>
<svg width="200px" height="205px" viewBox="0 0 200 205" version="1.1" xmlns="http://www.w3.org/2000/svg" xmlns:xlink="http://www.w3.org/1999/xlink">
    <title>形状</title>
    <g id="页面-1" stroke="none" stroke-width="1" fill="none" fill-rule="evenodd">
        <g id="画板" transform="translate(-74, -60)" fill="#F5F5F5" fill-rule="nonzero">
            <path d="M144.148,204.175 L144.148,264.831 L134.235,264.831 L134.235,204.175 L144.148,204.175 Z M211.716,154.447 L274,154.452 L274,164.287 L255.403,164.287 L255.403,173.419 L271.783,173.419 L271.783,243.869 L262.341,243.869 L262.341,240.357 L223.219,240.357 L223.219,244.171 L213.776,244.171 L213.776,173.419 L229.386,173.419 L229.386,164.287 L211.656,164.287 L211.171,164.298 C203.788,164.55 199.155,165.567 196.173,167.094 C193.118,168.659 191.591,171.034 191.591,174.219 C191.591,177.403 192.9,178.995 195.518,178.995 C197.931,178.995 199.138,177.238 199.138,173.725 L208.764,173.725 C208.764,177.952 207.711,181.535 205.606,184.473 C203.501,187.41 200.139,188.879 195.518,188.879 C190.898,188.879 187.484,187.479 185.276,184.679 C183.068,181.879 181.965,178.501 181.965,174.548 C181.965,168.288 184.711,163.374 190.205,159.805 C195.698,156.236 199.651,154.447 211.715,154.447 L211.716,154.447 Z M193.528,190.779 L213.228,198.892 L209.472,206.912 L209.537,206.938 C205.481,219.226 201.073,230.87 196.144,241.696 L195.468,243.167 L186.122,238.852 C191.431,227.792 196.132,216.642 200.058,205.23 L200.228,204.727 L189.044,200.029 L193.528,190.779 L193.528,190.779 Z M262.341,223.698 L223.219,223.698 L223.219,230.924 L262.341,230.924 L262.341,223.698 Z M143.494,175.107 C151.162,188.091 164.441,199.427 183.144,209.214 L177.253,218.419 C160.233,209.31 147.515,198.071 139.192,184.602 C129.185,199.233 116.467,210.473 101.13,218.419 L95.239,209.214 C112.446,200.493 125.632,189.06 134.89,175.107 L143.494,175.107 L143.494,175.107 Z M246.153,182.853 L238.637,182.853 L238.637,187.268 C238.444,197.706 234.975,205.333 228.037,210.15 L223.219,205.834 L223.219,214.465 L262.341,214.465 L262.341,206.336 L254.825,206.336 C249.043,206.336 246.153,203.326 246.153,197.505 L246.153,182.853 L246.153,182.853 Z M230.35,182.853 L223.22,182.853 L223.22,202.924 C227.845,199.311 230.254,194.093 230.35,187.268 L230.35,182.853 Z M262.34,182.853 L254.44,182.853 L254.44,195.197 C254.44,196.903 255.403,197.806 257.33,197.806 L262.34,197.806 L262.34,182.853 L262.34,182.853 Z M245.96,164.287 L238.83,164.287 L238.83,173.419 L245.96,173.419 L245.96,164.287 Z M179.605,75.937 L179.605,154.647 C179.605,161.557 176.135,165.061 169.195,165.061 L160.424,165.061 L158.11,155.548 C161.002,155.848 163.797,156.048 166.303,156.048 C168.809,156.048 170.063,154.346 170.063,151.042 L170.063,85.35 L134.495,85.35 L134.495,132.115 C134.302,145.934 131.41,157.049 125.82,165.661 L118.398,158.551 C122.639,151.741 124.856,143.23 125.048,132.816 L125.048,75.936 L179.604,75.936 L179.605,75.937 Z M115.315,102.475 L115.315,141.529 L120.327,138.509 L119.809,147.779 L105.921,158.769 L105.676,149.091 L105.676,112.488 L101.99,112.488 L101.99,102.475 L115.316,102.475 L115.315,102.475 Z M165.243,123.203 L165.243,150.541 L139.123,150.541 L139.123,123.203 L165.243,123.203 Z M268.69,60 L268.69,69.937 C260.297,77.681 250.94,85.154 240.536,92.18 L239.392,92.947 L239.394,101.752 L239.229,101.752 L239.229,134.672 C239.229,141.835 235.826,145.474 229.199,145.589 L228.871,145.592 C225.006,145.592 219.098,145.513 211.145,145.355 L211.1,134.967 C217.562,135.623 222.599,135.951 226.21,135.951 C228.206,135.951 229.251,134.869 229.251,132.704 L229.251,87.842 L229.291,87.818 L229.291,81.92 L238.669,81.92 C244.277778,78.1971006 249.698126,74.1978374 254.91,69.937 L194.944,69.937 L194.944,60 L268.69,60 Z M156.761,131.615 L147.701,131.615 L147.701,142.129 L156.761,142.129 L156.761,131.615 Z M101.985,102.475 L101.985,112.488 C95.443,112.67 92.749,113.677 90.241,114.902 L89.891,115.075 L89.717,115.162 L89.36,115.342 L88.633,115.707 C85.487,117.272 83.913,119.647 83.913,122.832 C83.913,126.016 85.262,127.609 87.959,127.609 C90.444,127.609 91.686,125.852 91.686,122.337 L101.6,122.337 C101.6,126.566 100.516,130.149 98.348,133.087 C96.18,136.024 92.718,137.493 87.958,137.493 C83.2,137.493 79.684,136.093 77.41,133.293 C75.137,130.491 74,127.114 74,123.16 C74,116.9 76.488,110.342 82.145,106.773 C87.803,103.203 89.56,102.473 101.985,102.473 L101.985,102.475 Z M156.954,87.955 L156.954,94.664 L166.593,94.664 L166.593,102.875 L156.953,102.875 L156.953,109.685 L167.846,109.685 L167.846,118.296 L136.616,118.296 L136.616,109.685 L147.412,109.685 L147.412,102.875 L137.869,102.875 L137.869,94.664 L147.412,94.664 L147.412,87.954 L156.954,87.954 L156.954,87.955 Z M108.037,75.937 C113.047,75.937 117.109,80.141 117.109,85.327 C117.109,90.512 113.047,94.717 108.037,94.717 C103.027,94.717 98.965,90.512 98.965,85.327 C98.965,80.141 103.026,75.937 108.037,75.937 L108.037,75.937 Z" id="形状"></path>
        </g>
    </g>
</svg>