<?xml version="1.0" encoding="UTF-8"?>
<svg width="200px" height="205px" viewBox="0 0 200 205" version="1.1" xmlns="http://www.w3.org/2000/svg" xmlns:xlink="http://www.w3.org/1999/xlink">
    <title>形状</title>
    <g id="页面-1" stroke="none" stroke-width="1" fill="none" fill-rule="evenodd">
        <g id="画板" transform="translate(-96, -53)" fill="#262626" fill-rule="nonzero">
            <path d="M166.148,197.175 L166.148,257.831 L156.235,257.831 L156.235,197.175 L166.148,197.175 Z M233.716,147.447 L296,147.452 L296,157.287 L277.403,157.287 L277.403,166.419 L293.783,166.419 L293.783,236.869 L284.341,236.869 L284.341,233.357 L245.219,233.357 L245.219,237.171 L235.776,237.171 L235.776,166.419 L251.386,166.419 L251.386,157.287 L233.656,157.287 L233.171,157.298 C225.788,157.55 221.155,158.567 218.173,160.094 C215.118,161.659 213.591,164.034 213.591,167.219 C213.591,170.403 214.9,171.995 217.518,171.995 C219.931,171.995 221.138,170.238 221.138,166.725 L230.764,166.725 C230.764,170.952 229.711,174.535 227.606,177.473 C225.501,180.41 222.139,181.879 217.518,181.879 C212.898,181.879 209.484,180.479 207.276,177.679 C205.068,174.879 203.965,171.501 203.965,167.548 C203.965,161.288 206.711,156.374 212.205,152.805 C217.698,149.236 221.651,147.447 233.715,147.447 L233.716,147.447 Z M215.528,183.779 L235.228,191.892 L231.472,199.912 L231.537,199.938 C227.481,212.226 223.073,223.87 218.144,234.696 L217.468,236.167 L208.122,231.852 C213.431,220.792 218.132,209.642 222.058,198.23 L222.228,197.727 L211.044,193.029 L215.528,183.779 L215.528,183.779 Z M284.341,216.698 L245.219,216.698 L245.219,223.924 L284.341,223.924 L284.341,216.698 Z M165.494,168.107 C173.162,181.091 186.441,192.427 205.144,202.214 L199.253,211.419 C182.233,202.31 169.515,191.071 161.192,177.602 C151.185,192.233 138.467,203.473 123.13,211.419 L117.239,202.214 C134.446,193.493 147.632,182.06 156.89,168.107 L165.494,168.107 L165.494,168.107 Z M268.153,175.853 L260.637,175.853 L260.637,180.268 C260.444,190.706 256.975,198.333 250.037,203.15 L245.219,198.834 L245.219,207.465 L284.341,207.465 L284.341,199.336 L276.825,199.336 C271.043,199.336 268.153,196.326 268.153,190.505 L268.153,175.853 L268.153,175.853 Z M252.35,175.853 L245.22,175.853 L245.22,195.924 C249.845,192.311 252.254,187.093 252.35,180.268 L252.35,175.853 Z M284.34,175.853 L276.44,175.853 L276.44,188.197 C276.44,189.903 277.403,190.806 279.33,190.806 L284.34,190.806 L284.34,175.853 L284.34,175.853 Z M267.96,157.287 L260.83,157.287 L260.83,166.419 L267.96,166.419 L267.96,157.287 Z M201.605,68.937 L201.605,147.647 C201.605,154.557 198.135,158.061 191.195,158.061 L182.424,158.061 L180.11,148.548 C183.002,148.848 185.797,149.048 188.303,149.048 C190.809,149.048 192.063,147.346 192.063,144.042 L192.063,78.35 L156.495,78.35 L156.495,125.115 C156.302,138.934 153.41,150.049 147.82,158.661 L140.398,151.551 C144.639,144.741 146.856,136.23 147.048,125.816 L147.048,68.936 L201.604,68.936 L201.605,68.937 Z M137.315,95.475 L137.315,134.529 L142.327,131.509 L141.809,140.779 L127.921,151.769 L127.676,142.091 L127.676,105.488 L123.99,105.488 L123.99,95.475 L137.316,95.475 L137.315,95.475 Z M187.243,116.203 L187.243,143.541 L161.123,143.541 L161.123,116.203 L187.243,116.203 Z M290.69,53 L290.69,62.937 C282.297,70.681 272.94,78.154 262.536,85.18 L261.392,85.947 L261.394,94.752 L261.229,94.752 L261.229,127.672 C261.229,134.835 257.826,138.474 251.199,138.589 L250.871,138.592 C247.006,138.592 241.098,138.513 233.145,138.355 L233.1,127.967 C239.562,128.623 244.599,128.951 248.21,128.951 C250.206,128.951 251.251,127.869 251.251,125.704 L251.251,80.842 L251.291,80.818 L251.291,74.92 L260.669,74.92 C266.277778,71.1971006 271.698126,67.1978374 276.91,62.937 L216.944,62.937 L216.944,53 L290.69,53 Z M178.761,124.615 L169.701,124.615 L169.701,135.129 L178.761,135.129 L178.761,124.615 Z M123.985,95.475 L123.985,105.488 C117.443,105.67 114.749,106.677 112.241,107.902 L111.891,108.075 L111.717,108.162 L111.36,108.342 L110.633,108.707 C107.487,110.272 105.913,112.647 105.913,115.832 C105.913,119.016 107.262,120.609 109.959,120.609 C112.444,120.609 113.686,118.852 113.686,115.337 L123.6,115.337 C123.6,119.566 122.516,123.149 120.348,126.087 C118.18,129.024 114.718,130.493 109.958,130.493 C105.2,130.493 101.684,129.093 99.41,126.293 C97.137,123.491 96,120.114 96,116.16 C96,109.9 98.488,103.342 104.145,99.773 C109.803,96.203 111.56,95.473 123.985,95.473 L123.985,95.475 Z M178.954,80.955 L178.954,87.664 L188.593,87.664 L188.593,95.875 L178.953,95.875 L178.953,102.685 L189.846,102.685 L189.846,111.296 L158.616,111.296 L158.616,102.685 L169.412,102.685 L169.412,95.875 L159.869,95.875 L159.869,87.664 L169.412,87.664 L169.412,80.954 L178.954,80.954 L178.954,80.955 Z M130.037,68.937 C135.047,68.937 139.109,73.141 139.109,78.327 C139.109,83.512 135.047,87.717 130.037,87.717 C125.027,87.717 120.965,83.512 120.965,78.327 C120.965,73.141 125.026,68.937 130.037,68.937 L130.037,68.937 Z" id="形状"></path>
        </g>
    </g>
</svg>